<svg xmlns="http://www.w3.org/2000/svg" width="500" height="500" viewBox="0 0 500 500" version="1.1">
	<path d="M 0 250.002 L 0 500.004 250.250 499.752 L 500.500 499.500 500.752 249.750 L 501.004 0 250.502 0 L 0 0 0 250.002 M 0.492 250.500 C 0.492 388, 0.608 444.101, 0.750 375.170 C 0.892 306.238, 0.892 193.738, 0.750 125.170 C 0.608 56.601, 0.492 113, 0.492 250.500 M 234 77.128 C 194.295 81.158, 158.002 98.276, 129 126.653 L 116.500 138.884 118.500 140.891 C 119.757 142.153, 123.841 143.623, 129.500 144.852 C 142.377 147.648, 150.207 150.456, 160.750 156.058 C 168.726 160.297, 170 160.715, 170 159.094 C 170 158.060, 169.273 156.935, 168.384 156.594 C 165.851 155.622, 166.870 143.334, 169.672 141.064 C 172.380 138.872, 174.325 128.708, 172.290 127.385 C 169.276 125.424, 169.472 114, 172.519 114 C 174.273 114, 174.304 113.634, 172.960 108.795 C 172.280 106.346, 171.474 105.264, 170.586 105.605 C 169.846 105.889, 168.243 104.857, 167.023 103.311 L 164.806 100.500 170.516 100.197 C 173.657 100.030, 176.358 100.030, 176.519 100.197 C 176.680 100.364, 177.036 101.935, 177.309 103.689 C 177.979 107.987, 178.724 108.989, 181.309 109.063 L 183.500 109.127 181.328 110.002 C 178.075 111.313, 179.282 114.808, 182.827 114.342 L 185.500 113.991 182.789 115.066 C 180.379 116.021, 180.157 116.494, 180.789 119.320 C 181.180 121.069, 181.500 124.882, 181.500 127.792 C 181.500 132.790, 181.633 133.069, 183.895 132.792 C 185.610 132.583, 186.368 131.791, 186.566 130 C 186.719 128.625, 187.281 125.585, 187.817 123.244 C 188.479 120.347, 188.456 118.782, 187.744 118.341 C 187.096 117.942, 187.400 117.181, 188.540 116.347 C 190.081 115.220, 190.122 115, 188.791 115 C 187.643 115, 187.257 114.164, 187.407 112 C 187.574 109.593, 187.208 108.984, 185.557 108.921 C 184.426 108.878, 184.063 108.615, 184.750 108.338 C 186.376 107.682, 186.321 106.140, 184.553 102.750 C 183.244 100.241, 183.275 100, 184.904 100 C 186.997 100, 189.096 102.193, 191.449 106.836 C 193.452 110.787, 193.751 118.096, 192.567 134.141 C 191.297 151.346, 194.135 159.525, 204.228 167.750 C 208.147 170.943, 211.852 172.187, 210.387 169.818 C 209.986 169.168, 209.490 166.130, 209.286 163.068 C 208.732 154.761, 207.469 149.190, 204.582 142.332 C 201.510 135.031, 200.223 125.320, 201.910 122.168 C 203.670 118.880, 204.474 119.489, 206.385 125.553 C 208.591 132.551, 213.999 138.258, 223.787 143.918 C 227.795 146.235, 234.013 151.027, 237.604 154.566 C 241.196 158.105, 244.343 161, 244.599 161 C 244.855 161, 245.471 159.988, 245.969 158.750 L 246.873 156.500 246.937 158.750 C 246.979 160.242, 247.618 161, 248.833 161 C 251.892 161, 252.064 159.865, 249.472 156.784 C 248.112 155.169, 247 152.895, 247 151.732 C 247 149.654, 247.027 149.651, 248.555 151.559 C 250.052 153.428, 250.070 153.417, 249.036 151.279 C 247.803 148.731, 247.882 138.190, 249.119 140.192 C 250.203 141.947, 251.344 140.481, 253.003 135.200 C 254.906 129.139, 255.530 129.313, 255.306 135.843 C 255.114 141.421, 255.123 141.442, 255.990 137.326 C 256.970 132.676, 259.403 127.487, 261.093 126.443 C 261.901 125.943, 261.902 126.314, 261.100 127.814 C 260.495 128.944, 260.055 132.261, 260.122 135.184 L 260.244 140.500 261.083 134.776 C 261.852 129.526, 264.334 123, 265.561 123 C 265.841 123, 265.589 123.900, 265 125 C 264.380 126.159, 264.325 127, 264.871 127 C 265.389 127, 265.577 127.900, 265.290 129 C 264.351 132.591, 265.975 131.102, 267.744 126.750 L 269.472 122.500 270.627 128.500 C 271.395 132.490, 271.819 133.474, 271.891 131.438 C 272.017 127.905, 275.114 120.981, 278.714 116.184 C 281.977 111.836, 282.524 112.626, 280.040 118.101 C 277.932 122.748, 277.401 127.512, 278.890 128.432 C 279.380 128.735, 280.093 127.320, 280.474 125.288 C 280.855 123.256, 282.023 119.915, 283.069 117.864 C 285.296 113.500, 287.475 111.621, 286.092 115.258 C 285.596 116.563, 284.886 120.301, 284.515 123.565 L 283.839 129.500 285.905 126.250 C 287.041 124.463, 288.090 123, 288.235 122.999 C 288.381 122.999, 288.392 125.362, 288.261 128.249 C 288.086 132.085, 288.269 132.961, 288.940 131.500 L 289.859 129.500 289.993 131.500 C 290.110 133.254, 290.262 133.193, 291.225 131 C 292.255 128.654, 292.367 128.808, 293.043 133.500 C 293.439 136.250, 294.971 140.750, 296.447 143.500 C 298.502 147.325, 298.982 147.802, 298.491 145.527 C 297.854 142.573, 297.863 142.566, 299.925 144.432 C 301.979 146.291, 302 146.281, 302.035 143.405 C 302.055 141.807, 302.617 139.517, 303.285 138.316 C 304.363 136.378, 304.500 136.717, 304.500 141.316 C 304.500 145.758, 305.095 147.367, 308.656 152.556 C 316.297 163.692, 317.793 170.546, 313.957 176.839 C 311.614 180.681, 312.126 183.706, 315.338 185.001 L 317.500 185.873 315.309 185.937 C 314.104 185.971, 312.866 186.408, 312.558 186.907 C 312.249 187.405, 312.872 187.585, 313.942 187.305 C 315.216 186.972, 316.855 187.780, 318.694 189.648 C 321.437 192.436, 321.451 192.507, 319.318 192.811 C 318.117 192.982, 315.709 192.384, 313.966 191.482 C 311.416 190.164, 310.889 189.362, 311.267 187.382 C 311.561 185.844, 311.318 185.058, 310.619 185.287 C 308.934 185.840, 308.730 190.248, 310.290 192.382 C 311.224 193.660, 313.353 194.424, 316.942 194.768 L 322.219 195.276 321.503 192.013 C 321.002 189.731, 321.119 188.956, 321.893 189.434 C 322.502 189.810, 323 190.740, 323 191.500 C 323 195.033, 327.030 194.013, 332.375 189.128 C 334.760 186.948, 335.029 186.864, 333.955 188.637 C 331.803 192.188, 325.350 195.688, 316.697 197.996 C 305.071 201.098, 300.792 203.189, 294.835 208.679 L 289.604 213.500 291.913 209.500 C 294.094 205.720, 294.106 205.604, 292.131 207.386 C 290.385 208.962, 289.949 209.032, 289.480 207.809 C 289.171 207.004, 289.387 205.113, 289.959 203.607 C 291.377 199.879, 291.282 199.220, 289.250 198.689 C 287.951 198.350, 288.088 198.202, 289.781 198.116 C 292.110 197.998, 292.367 197.616, 293.457 192.666 C 293.924 190.542, 293.757 189.997, 292.790 190.490 C 292.081 190.852, 292.211 190.552, 293.079 189.824 C 293.947 189.096, 295.108 185.686, 295.658 182.247 C 296.648 176.053, 296.638 176.007, 294.579 177.332 C 293.435 178.067, 290.363 179.911, 287.750 181.430 C 285.137 182.948, 283 184.822, 283 185.595 C 283 187.292, 283.740 187.335, 287.902 185.884 C 289.662 185.271, 291.348 185.015, 291.648 185.315 C 291.949 185.616, 290.351 186.414, 288.097 187.089 C 283.984 188.321, 283.297 189.342, 284.888 191.853 C 285.547 192.892, 286.224 192.950, 287.807 192.103 C 288.941 191.496, 290.236 191.020, 290.684 191.044 C 291.133 191.069, 289.779 191.996, 287.676 193.106 C 283.934 195.080, 283.886 195.177, 285.449 197.562 C 286.327 198.903, 286.597 200, 286.048 200 C 285.389 200, 285.382 200.873, 286.025 202.565 C 287.277 205.860, 287.234 208.006, 285.960 205.821 C 284.860 203.936, 279.902 185.402, 280.188 184.245 C 280.289 183.835, 279.645 181.833, 278.756 179.797 C 277.417 176.726, 275.805 175.420, 269.321 172.149 C 265.019 169.980, 259.514 166.626, 257.087 164.696 C 254.659 162.767, 252.084 161.414, 251.363 161.691 C 249.416 162.438, 252.058 165.429, 260.910 172.500 C 271.962 181.327, 279.802 194.658, 281.377 207.302 C 282.098 213.081, 280.539 212.770, 279.608 206.948 C 278.687 201.191, 273.637 190.484, 269.409 185.324 C 267.444 182.925, 263.178 179.158, 259.929 176.952 C 253.357 172.489, 250.638 169.909, 247.926 165.562 L 246.093 162.624 244.996 165.562 C 244.392 167.178, 242.721 171.425, 241.282 175 C 237.775 183.717, 237.667 192.112, 240.947 201.250 C 242.280 204.963, 243.792 208, 244.307 208 C 244.823 208, 244.627 208.761, 243.872 209.692 C 242.925 210.859, 242.890 211.150, 243.757 210.629 C 244.517 210.172, 245.262 210.519, 245.642 211.508 C 246.160 212.860, 246.919 212.509, 250.019 209.481 C 252.082 207.467, 254.046 206.265, 254.383 206.811 C 254.721 207.357, 253.411 208.740, 251.473 209.883 C 249.535 211.027, 247.539 212.983, 247.038 214.231 C 246.537 215.479, 246.098 215.986, 246.063 215.357 C 246.029 214.728, 245.399 213.983, 244.665 213.702 C 243.623 213.302, 243.671 213.942, 244.884 216.618 C 246.199 219.520, 246.544 219.763, 247.123 218.197 C 249.203 212.573, 258.879 207.132, 267.367 206.813 C 271.843 206.644, 272.345 207.118, 274.465 213.500 C 277.547 222.783, 281.087 225.774, 282.470 220.264 C 283.086 217.811, 283.261 217.715, 284.168 219.337 C 284.725 220.331, 284.906 222.237, 284.571 223.572 C 284.044 225.673, 284.310 226, 286.546 226 C 287.967 226, 293.011 223.953, 297.754 221.451 C 308.317 215.879, 312.352 215.711, 315.487 220.711 C 317.828 224.446, 319 224.850, 319 221.923 C 319 218.853, 313.701 214.003, 310.327 213.985 C 308.772 213.976, 306.825 213.494, 306 212.913 C 304.895 212.134, 305.816 211.987, 309.500 212.354 C 312.250 212.628, 315.400 213.130, 316.500 213.470 C 317.818 213.878, 320.440 212.917, 324.192 210.652 C 327.322 208.763, 330.074 207.408, 330.308 207.642 C 330.542 207.875, 331.028 205.843, 331.389 203.125 C 331.750 200.407, 332.897 195.705, 333.940 192.676 C 334.982 189.646, 335.636 186.969, 335.393 186.726 C 335.150 186.484, 335.702 185.662, 336.620 184.900 C 338.121 183.654, 338.216 183.765, 337.565 186.008 C 337.167 187.379, 336.639 189.232, 336.393 190.126 C 335.814 192.224, 338.621 192.975, 347 192.964 C 355.298 192.954, 360.776 190.534, 367.979 183.699 C 370.992 180.840, 372.342 179.819, 370.979 181.431 C 366.756 186.424, 363.690 188.954, 358.500 191.725 C 354.028 194.113, 352.536 194.376, 344.360 194.220 L 335.220 194.046 334.791 196.970 C 334.555 198.579, 334.684 199.695, 335.078 199.452 C 335.472 199.208, 337.227 199.295, 338.978 199.646 C 341.220 200.094, 341.768 200.532, 340.831 201.126 C 339.244 202.132, 341.017 202.315, 343.418 201.393 C 345.739 200.503, 345.346 199.020, 342.750 198.870 C 341.512 198.799, 343.771 198.360, 347.769 197.895 C 351.767 197.430, 355.968 196.552, 357.105 195.944 C 360.316 194.225, 360.535 195.640, 357.338 197.458 C 354.688 198.966, 354.665 199.029, 357 198.408 C 358.375 198.043, 361.075 196.949, 363 195.979 C 364.925 195.008, 366.858 194.279, 367.295 194.357 C 368.711 194.612, 374.125 185.587, 373.649 183.765 C 373.395 182.793, 373.581 182.241, 374.064 182.540 C 375.194 183.238, 376.380 178.559, 375.716 176.021 C 375.436 174.950, 375.835 173.552, 376.603 172.914 C 378.548 171.300, 378.471 175.052, 376.416 181.972 C 373.209 192.768, 368.929 197.231, 355.882 203.377 C 351.244 205.562, 346.875 208.503, 344.714 210.895 C 339.545 216.617, 339.051 217.957, 340.682 221.848 C 341.950 224.872, 342.347 225.114, 344.793 224.348 C 346.282 223.881, 350.650 223.530, 354.500 223.567 C 362.378 223.643, 367.976 225.691, 381.500 233.448 C 396.815 242.231, 406.080 243.932, 419.015 240.336 C 424.678 238.762, 425 238.506, 424.996 235.586 C 424.990 230.298, 422.327 215.890, 419.668 206.753 C 416.845 197.057, 416.246 195.730, 415.029 196.482 C 414.571 196.765, 413.251 195.396, 412.097 193.440 C 410.943 191.484, 409.549 190.161, 408.999 190.500 C 408.450 190.840, 408 190.566, 408 189.892 C 408 189.218, 407.704 188.963, 407.342 189.325 C 406.980 189.687, 406.080 189.481, 405.342 188.869 C 404.349 188.045, 403.610 188.079, 402.500 189 C 401.638 189.715, 401 189.814, 401 189.231 C 401 188.673, 399.835 187.924, 398.412 187.567 C 396.259 187.027, 396.031 186.668, 397.054 185.435 C 397.731 184.619, 397.996 183.663, 397.643 183.309 C 397.289 182.956, 397 183.218, 397 183.892 C 397 184.566, 396.543 184.835, 395.984 184.490 C 395.425 184.144, 395.206 183.475, 395.498 183.003 C 396.564 181.279, 391.887 180.844, 389.451 182.440 C 386.381 184.452, 386.387 184.750, 389.500 184.750 C 390.955 184.750, 392 184.175, 392 183.375 C 392 182.619, 392.402 182, 392.893 182 C 393.960 182, 395.271 185.063, 394.524 185.810 C 394.236 186.098, 394 186.018, 394 185.631 C 394 185.245, 393.100 185.411, 392 186 C 390.516 186.794, 390 186.760, 390 185.869 C 390 185.207, 389.739 184.928, 389.419 185.248 C 388.429 186.238, 391.035 190.097, 392.205 189.373 C 392.876 188.958, 393.026 189.150, 392.585 189.862 C 392.187 190.506, 391.443 190.774, 390.931 190.457 C 390.419 190.141, 390 190.344, 390 190.910 C 390 191.475, 389.212 191.660, 388.250 191.321 C 386.821 190.819, 386.730 190.953, 387.750 192.053 C 389.510 193.950, 389.311 195.503, 387.500 194 C 386.675 193.315, 386 191.685, 386 190.378 C 386 189.070, 385.438 187.955, 384.750 187.900 C 384.063 187.845, 384.625 187.475, 386 187.077 C 388.410 186.380, 388.381 186.336, 385.206 185.844 C 381.156 185.216, 380.244 186.373, 382.957 188.696 C 384.081 189.657, 384.968 191.132, 384.930 191.972 C 384.881 193.027, 384.593 192.881, 384 191.500 C 383.527 190.400, 383.109 190.093, 383.070 190.817 C 383.024 191.693, 382.296 191.911, 380.901 191.469 C 379.063 190.885, 378.895 191.093, 379.546 193.143 C 380.208 195.231, 380.111 195.337, 378.644 194.120 C 377.740 193.369, 377 193.090, 377 193.500 C 377 193.910, 376.396 193.744, 375.658 193.131 C 374.920 192.519, 373.922 192.351, 373.441 192.759 C 372.960 193.166, 373.054 192.825, 373.650 192 C 377.405 186.804, 380.770 170, 378.056 170 C 377.537 170, 374.638 173.262, 371.613 177.250 C 362.430 189.357, 352.941 193.738, 341.052 191.360 C 337.687 190.687, 337.744 190.969, 339.609 184.250 C 340.619 180.610, 338.178 181.542, 332.406 187 C 329.499 189.750, 326.695 192, 326.175 192 C 325.655 192, 324.425 190.762, 323.440 189.250 C 321.199 185.807, 318.992 184.073, 316.800 184.032 C 313.563 183.971, 313.233 181.148, 315.846 175.868 C 318.291 170.927, 318.305 170.760, 316.695 165.726 C 315.795 162.911, 315.169 160.498, 315.303 160.363 C 315.438 160.229, 323.412 160.763, 333.024 161.551 C 344.214 162.469, 355.284 162.752, 363.802 162.337 C 374.353 161.824, 377.041 161.955, 376.802 162.970 C 376.636 163.674, 377.063 164.456, 377.750 164.708 C 378.438 164.960, 379 164.442, 379 163.555 C 379 162.154, 380.436 161.980, 390.001 162.222 C 396.052 162.375, 401.002 162.251, 401.001 161.946 C 401.001 161.641, 399.608 159.197, 397.908 156.515 C 386.788 138.982, 365.777 117.562, 348.415 106.060 C 313.779 83.115, 274.037 73.065, 234 77.128 M 203.079 124 C 202.996 127.632, 205.624 135.682, 208.487 140.568 C 211.499 145.708, 225.865 159.180, 227.401 158.306 C 228.005 157.961, 228.180 158.034, 227.790 158.466 C 227.399 158.899, 227.737 160.524, 228.540 162.077 C 229.343 163.630, 230 165.839, 230 166.986 C 230 168.753, 229.699 168.909, 228.021 168.011 C 225.720 166.780, 220.982 167.642, 219.422 169.575 C 217.846 171.529, 212.467 172.449, 204.341 172.155 C 200.312 172.009, 196.910 172.336, 196.559 172.904 C 196.216 173.459, 195.326 173.679, 194.581 173.393 C 193.108 172.828, 190.866 175.782, 187.132 183.211 C 184.982 187.487, 179.608 193.477, 173 198.961 L 170.500 201.035 175.918 199.050 C 178.897 197.958, 180.885 197.515, 180.334 198.066 C 179.784 198.616, 177.121 199.911, 174.417 200.943 C 169.690 202.746, 169.606 202.845, 172.228 203.512 C 174.371 204.057, 175.860 203.541, 179.175 201.103 C 183.845 197.668, 185 197.328, 185 199.385 C 185 200.147, 185.787 203.185, 186.750 206.135 L 188.500 211.500 189.160 204.500 C 189.977 195.833, 193.651 175.993, 194.597 175.134 C 194.981 174.785, 194.963 175.625, 194.556 177 C 192.985 182.311, 192.801 202.350, 194.271 207.950 L 195.702 213.400 196.392 209.450 C 196.771 207.277, 197.587 204.215, 198.206 202.644 L 199.331 199.787 200.971 201.961 C 202.404 203.862, 202.937 203.986, 205.211 202.950 C 206.641 202.298, 208.630 200.246, 209.629 198.390 C 210.629 196.534, 211.909 195.081, 212.473 195.161 C 213.038 195.241, 215.236 194.537, 217.358 193.595 C 219.480 192.653, 221.468 192.134, 221.775 192.441 C 222.082 192.749, 221.894 193, 221.358 193 C 220.821 193, 219.509 193.673, 218.441 194.495 C 217.200 195.451, 218.172 195.272, 221.136 193.999 C 224.694 192.471, 226.904 192.161, 230.636 192.669 C 235.095 193.276, 235.386 193.192, 234.128 191.665 C 233.373 190.749, 231.910 190, 230.878 190 C 229.845 190, 229 189.517, 229 188.927 C 229 188.338, 227.870 188.744, 226.488 189.831 C 222.195 193.208, 211.941 190.993, 212.063 186.715 L 212.127 184.500 212.999 186.662 C 213.992 189.126, 217.103 190.419, 219.900 189.532 C 221.533 189.013, 221.650 188.534, 220.736 186.112 C 219.206 182.059, 220.241 180.151, 223.671 180.702 C 225.972 181.072, 226.220 180.939, 225 179.992 C 223.760 179.029, 223.900 178.915, 225.807 179.335 C 227.298 179.663, 227.976 179.428, 227.724 178.671 C 227.024 176.568, 223.818 176.759, 220.627 179.094 C 218.544 180.618, 217.977 180.795, 218.927 179.625 C 221.412 176.566, 225.934 174.701, 227.572 176.060 C 229.689 177.817, 229.304 182.023, 226.759 184.936 C 225.527 186.346, 226.242 185.925, 228.348 184 C 231.570 181.055, 232.145 180.817, 231.974 182.500 C 231.605 186.117, 231.977 187, 233.868 187 C 235.278 187, 236.154 185.590, 237.441 181.250 C 238.378 178.088, 239.391 174.890, 239.691 174.145 C 240.074 173.194, 239.680 172.963, 238.368 173.372 C 237.341 173.692, 235.998 173.627, 235.385 173.227 C 233.739 172.154, 232.759 168.267, 233.948 167.532 C 234.585 167.138, 234.721 167.562, 234.305 168.647 C 233.742 170.115, 234.142 170.035, 236.787 168.152 C 241.186 165.019, 241.325 164.552, 239.125 160.284 C 236.514 155.217, 232.204 151.304, 221.863 144.611 C 212.382 138.475, 208.086 134.203, 206.109 128.946 C 203.312 121.506, 203.142 121.229, 203.079 124 M 180 135.383 C 180 136.232, 185.085 136.671, 185.583 135.866 C 185.877 135.390, 184.741 135, 183.059 135 C 181.377 135, 180 135.173, 180 135.383 M 250.079 138.583 C 250.127 139.748, 250.364 139.985, 250.683 139.188 C 250.972 138.466, 250.936 137.603, 250.604 137.271 C 250.272 136.939, 250.036 137.529, 250.079 138.583 M 180.661 144.040 C 180.812 149.698, 182.302 153.549, 183.948 152.532 C 184.344 152.287, 184.771 149.264, 184.895 145.815 C 185.022 142.297, 185.643 139.211, 186.311 138.787 C 186.979 138.362, 185.968 138.024, 184 138.015 L 180.500 137.999 180.661 144.040 M 114.500 142 C 114.160 142.550, 114.835 143, 116 143 C 117.165 143, 117.840 142.550, 117.500 142 C 117.160 141.450, 116.485 141, 116 141 C 115.515 141, 114.840 141.450, 114.500 142 M 111.667 145.667 C 109.689 147.644, 112.917 148.869, 121.250 149.304 C 123.312 149.412, 124.999 149.864, 125 150.309 C 125 150.754, 125.373 150.887, 125.829 150.606 C 126.826 149.990, 135.793 152.583, 137.465 153.971 C 138.251 154.623, 139.042 154.558, 139.824 153.776 C 140.580 153.020, 141 152.979, 141 153.661 C 141 154.244, 143.721 156.172, 147.047 157.944 C 151.954 160.560, 153.372 160.936, 154.570 159.942 C 155.767 158.948, 155.940 158.993, 155.484 160.180 C 154.954 161.563, 158.367 163.922, 161.872 164.595 C 162.626 164.740, 164.489 166.052, 166.011 167.511 C 167.534 168.970, 170.709 170.597, 173.067 171.126 C 175.424 171.656, 178.401 173.220, 179.681 174.601 C 181.023 176.049, 182.508 176.804, 183.189 176.383 C 185.615 174.884, 169.516 162.787, 156.308 156.184 C 142.621 149.342, 114.595 142.739, 111.667 145.667 M 208.516 147.800 C 208.881 148.515, 209.537 151.215, 209.972 153.800 L 210.765 158.500 210.882 154.441 C 210.951 152.078, 210.342 149.571, 209.426 148.441 C 208.560 147.374, 208.151 147.085, 208.516 147.800 M 281.477 157.750 C 283.256 161.423, 283.554 161.605, 284.357 159.512 C 284.671 158.694, 284.526 158.131, 284.035 158.262 C 283.543 158.393, 282.413 157.600, 281.522 156.500 C 280.025 154.650, 280.021 154.744, 281.477 157.750 M 279.500 159 C 280.353 160.650, 281.276 162, 281.551 162 C 281.826 162, 281.353 160.650, 280.500 159 C 279.647 157.350, 278.724 156, 278.449 156 C 278.174 156, 278.647 157.350, 279.500 159 M 292.474 157.500 C 292.883 158.600, 293.678 161.075, 294.241 163 C 295.137 166.065, 295.364 166.251, 296.062 164.500 C 296.738 162.804, 296.870 162.766, 296.930 164.250 C 296.968 165.213, 297.450 166, 298 166 C 298.550 166, 299.047 165.213, 299.103 164.250 C 299.160 163.287, 299.655 164.188, 300.203 166.250 C 301.393 170.733, 303 171.184, 303 167.035 C 303 164.192, 300.075 161.259, 298.655 162.678 C 298.321 163.013, 297.749 162.509, 297.384 161.559 C 296.859 160.190, 296.546 160.109, 295.876 161.166 C 295.197 162.237, 295.021 162.205, 294.984 161 C 294.958 160.175, 294.215 158.600, 293.334 157.500 L 291.731 155.500 292.474 157.500 M 302.045 158.128 C 302.070 159.432, 302.708 161.850, 303.464 163.500 C 304.720 166.243, 304.845 166.303, 304.919 164.191 C 305.039 160.786, 307 162.603, 307 166.118 C 307 167.863, 307.418 168.860, 308 168.500 C 308.550 168.160, 309 166.307, 309 164.382 C 309 162.303, 308.594 161.133, 308 161.500 C 307.450 161.840, 307 161.615, 307 161 C 307 160.385, 306.550 160.160, 306 160.500 C 305.450 160.840, 305 160.472, 305 159.681 C 305 158.891, 304.325 157.685, 303.500 157 C 302.237 155.952, 302.007 156.130, 302.045 158.128 M 201.539 160.871 L 198.578 161.506 202.460 164.706 C 204.595 166.466, 206.715 167.676, 207.171 167.394 C 207.627 167.112, 208 165.334, 208 163.441 C 208 159.758, 207.555 159.582, 201.539 160.871 M 211.015 162.316 C 210.996 165.817, 212.628 169, 214.442 169 C 216.187 169, 215.281 165.045, 213.367 164.311 C 212.621 164.024, 212.204 163.479, 212.440 163.097 C 212.675 162.716, 212.455 161.751, 211.949 160.952 C 211.264 159.868, 211.027 160.214, 211.015 162.316 M 276.742 162.589 C 277.933 164.288, 279.585 166.240, 280.413 166.928 C 281.688 167.986, 281.855 167.842, 281.497 165.987 C 281.018 163.495, 278.973 160.693, 278.200 161.467 C 277.916 161.751, 276.985 161.424, 276.131 160.741 C 275.267 160.050, 275.538 160.870, 276.742 162.589 M 286.092 162.826 C 286.925 165.220, 287.553 165.847, 288.335 165.065 C 289.118 164.282, 288.794 163.351, 287.179 161.739 L 284.935 159.500 286.092 162.826 M 310.086 161 C 310.116 161.825, 310.527 163.400, 311 164.500 L 311.859 166.500 311.914 164.500 C 311.945 163.400, 311.533 161.825, 311 161 C 310.138 159.667, 310.037 159.667, 310.086 161 M 241.773 163.591 C 242.026 164.916, 242.631 166, 243.117 166 C 244.533 166, 244.133 162.265, 242.656 161.698 C 241.694 161.329, 241.443 161.866, 241.773 163.591 M 292.070 162.691 C 292.032 163.896, 292.450 165.160, 293 165.500 C 294.183 166.231, 294.183 165.252, 293 162.500 C 292.171 160.572, 292.138 160.579, 292.070 162.691 M 218.192 166.075 C 218.389 166.666, 218.978 167.150, 219.500 167.150 C 220.022 167.150, 220.611 166.666, 220.808 166.075 C 221.005 165.484, 220.417 165, 219.500 165 C 218.583 165, 217.995 165.484, 218.192 166.075 M 102.500 167.006 L 97.500 167.686 104.097 167.843 C 110.180 167.988, 110.972 168.271, 114.281 171.485 C 118.596 175.675, 118.446 176.684, 111.666 189.183 C 106.124 199.397, 103.230 207.845, 102.248 216.679 C 101.577 222.719, 101.243 223.483, 99 224.106 C 97.625 224.488, 96.950 224.852, 97.500 224.916 C 98.050 224.979, 97.825 225.467, 97 226 C 96.175 226.533, 93.138 226.976, 90.250 226.985 C 86.257 226.996, 85 227.359, 85 228.500 C 85 229.486, 84.014 230, 82.122 230 C 76.907 230, 76.710 231.009, 77.283 254.748 C 77.693 271.747, 78.279 278.685, 79.961 286.500 C 88.844 327.747, 110.618 362.720, 143.763 388.979 L 148.027 392.356 150.973 390.178 C 152.593 388.980, 154.333 388, 154.839 388 C 156.293 388, 162.648 379.777, 164.359 375.684 C 165.212 373.641, 166.744 371.638, 167.762 371.234 C 170.318 370.220, 177 362.602, 177 360.701 C 177 358.706, 181.684 355, 184.207 355 C 185.985 355, 194.835 350.458, 196 348.948 C 197.613 346.856, 201.350 346.067, 206.900 346.647 C 211.126 347.089, 213.417 346.899, 214.478 346.019 C 215.694 345.009, 216.598 345.005, 218.999 346 C 220.650 346.683, 222 347.577, 222 347.985 C 222 348.394, 223.828 349.995, 226.063 351.544 C 230.008 354.277, 235 361.264, 235 364.050 C 235 364.806, 232.863 363.325, 230.250 360.759 C 222.071 352.724, 215.719 351.312, 205.909 355.348 C 193.439 360.477, 186.179 368.169, 176.506 386.500 C 173.313 392.550, 170.282 398.039, 169.771 398.698 C 169.259 399.358, 166.739 400.033, 164.170 400.198 L 159.500 400.500 174 407.696 C 198.014 419.613, 218.779 424.806, 246 425.704 C 290.988 427.188, 333.187 411.630, 368 380.724 C 377.801 372.023, 386.034 362.977, 386.396 360.509 C 386.510 359.734, 387.766 358.185, 389.187 357.067 C 394.674 352.751, 412.150 322.221, 414.505 312.836 C 415.050 310.664, 414.661 310.074, 411.821 308.768 C 409.995 307.927, 407.090 307.217, 405.368 307.190 C 400.139 307.107, 394.496 305.157, 392.098 302.604 C 388.944 299.247, 377.513 297.963, 373.602 300.525 C 371.594 301.841, 369.462 302.135, 364.312 301.807 C 360.374 301.556, 357.464 300.892, 357.230 300.191 C 357.012 299.536, 355.971 299, 354.917 299 C 353.241 299, 353 299.754, 353 305 C 353 310.905, 353.044 311, 355.800 311 C 361.603 311, 362.394 315.070, 358.612 325.487 L 356.225 332.065 359.862 329.848 C 370.891 323.128, 373.847 322.803, 376.029 328.069 C 378.616 334.315, 374.879 349.071, 368.637 357.253 C 365.508 361.356, 357.131 368.464, 356.347 367.681 C 356.130 367.463, 356.637 364.651, 357.476 361.432 C 358.856 356.131, 359.530 349, 358.649 349 C 358.456 349, 356.994 349.401, 355.399 349.892 C 353.805 350.383, 349.800 351.365, 346.500 352.074 C 343.200 352.784, 339.206 354.426, 337.624 355.723 C 334.408 358.362, 333.310 358.158, 334.885 355.215 C 335.870 353.374, 335.508 353.231, 328.716 352.795 C 322.700 352.408, 319.300 351.369, 308.272 346.544 C 300.996 343.362, 294.579 340.197, 294.011 339.513 C 292.374 337.541, 282.388 340.254, 278.866 343.628 L 276 346.374 276 343.234 C 276 338.108, 277.779 335.629, 284.823 330.943 C 291.887 326.242, 300.026 319.486, 310.873 309.318 C 317.501 303.105, 318.584 300.480, 313.326 303.373 C 305.891 307.464, 303.582 308.167, 299.571 307.560 C 291.449 306.330, 290.122 306.691, 285.571 311.374 C 277.680 319.493, 271.620 321.241, 262.274 318.092 C 256.802 316.249, 255.814 316.180, 252.825 317.429 C 250.988 318.196, 246.564 319.321, 242.993 319.928 C 235.047 321.280, 227.841 323.068, 226.500 324.021 C 224.308 325.580, 203.049 331.939, 196 333.145 C 191.875 333.851, 182.875 334.414, 176 334.397 C 165.123 334.371, 162.429 334.013, 155.250 331.640 C 149.941 329.885, 147 328.394, 147 327.456 C 147 326.391, 145.758 326, 142.378 326 C 138.467 326, 137.939 325.778, 138.951 324.559 C 139.608 323.767, 140.743 323.348, 141.472 323.628 C 142.201 323.907, 143.095 323.656, 143.458 323.068 C 143.866 322.408, 143.044 321.994, 141.309 321.985 C 137 321.961, 135.559 320.692, 136.932 318.127 C 138.154 315.844, 139.618 315.354, 140.180 317.039 C 140.404 317.713, 142.062 317.537, 144.889 316.539 C 147.288 315.693, 151.246 315, 153.685 315 C 156.386 315, 157.877 314.609, 157.500 314 C 157.160 313.450, 157.284 313, 157.774 313 C 159.761 313, 159.786 314.370, 157.849 316.990 C 155.801 319.761, 155.628 323.056, 157.500 323.654 C 158.050 323.830, 161.200 322.428, 164.500 320.538 L 170.500 317.103 167 315.871 C 159.353 313.179, 146.225 305.851, 141.339 301.547 C 138.500 299.046, 135.914 297, 135.592 297 C 135.269 297, 133.156 298.671, 130.895 300.713 C 126.956 304.272, 126.727 304.347, 125.393 302.522 C 124.627 301.475, 124 299.804, 124 298.809 C 124 297.814, 123.888 297.005, 123.750 297.012 C 123.612 297.018, 121.025 297.688, 118 298.500 C 110.541 300.502, 103.119 300.475, 102.340 298.443 C 102.004 297.569, 101.091 297.135, 100.260 297.454 C 99.280 297.830, 98.958 297.552, 99.310 296.636 C 99.612 295.847, 99.254 295.303, 98.479 295.374 C 97.730 295.443, 97.059 295.050, 96.988 294.500 C 96.916 293.950, 96.215 293.140, 95.429 292.700 C 93.437 291.585, 93.647 290.325, 95.925 289.730 C 97.276 289.377, 97.692 289.640, 97.318 290.613 C 97.025 291.376, 97.284 292, 97.893 292 C 98.502 292, 99 291.270, 99 290.378 C 99 289.049, 99.271 288.980, 100.500 290 C 101.325 290.685, 102 292.288, 102 293.563 C 102 296.613, 103.224 297.246, 106.621 295.954 C 110.155 294.611, 124 285.873, 124 284.986 C 124 284.620, 122.926 283.832, 121.613 283.234 C 119.433 282.240, 118.694 282.703, 113.081 288.573 C 109.700 292.108, 106.531 295, 106.037 295 C 105.537 295, 105.482 293.782, 105.913 292.250 C 106.338 290.738, 106.473 287.736, 106.214 285.581 C 105.852 282.577, 106.167 281.351, 107.562 280.331 C 109.115 279.195, 109.146 279, 107.773 279 C 104.778 279, 102.909 280.240, 100.450 283.858 C 99.103 285.842, 98 286.925, 98 286.267 C 98 285.608, 99.417 283.455, 101.149 281.483 C 103.691 278.588, 104.898 277.954, 107.399 278.198 C 110.367 278.487, 110.521 278.728, 111 283.817 L 111.500 289.134 115 285.469 L 118.500 281.804 116 280.177 C 114.625 279.283, 111.742 276.638, 109.593 274.301 L 105.686 270.051 101.985 273.395 C 99.949 275.234, 97.795 276.910, 97.199 277.119 C 96.602 277.329, 95.548 279.750, 94.856 282.500 C 92.498 291.873, 90.984 291.882, 88.552 282.540 C 86.744 275.596, 86.564 267.280, 88.059 259.799 C 90.016 250.013, 92.218 247.855, 102.174 245.967 C 105.020 245.427, 107.484 244.850, 107.650 244.683 C 107.816 244.517, 107.002 241.933, 105.839 238.940 C 104.189 234.692, 103.713 231.200, 103.667 223 C 103.594 210.336, 105.503 203.626, 113.588 188.123 C 116.565 182.416, 119 176.925, 119 175.921 C 119 174.171, 112.511 167, 110.928 167 C 110.508 167, 109.564 166.848, 108.832 166.663 C 108.099 166.477, 105.250 166.632, 102.500 167.006 M 314.158 169 C 314.158 170.375, 314.385 170.938, 314.662 170.250 C 314.940 169.563, 314.940 168.438, 314.662 167.750 C 314.385 167.063, 314.158 167.625, 314.158 169 M 360 168 C 360 168.550, 360.702 169, 361.559 169 C 362.416 169, 362.840 168.550, 362.500 168 C 362.160 167.450, 361.459 167, 360.941 167 C 360.423 167, 360 167.450, 360 168 M 236 170 C 236 171.253, 237.061 171.253, 239 170 C 240.213 169.216, 240.069 169.028, 238.250 169.015 C 237.012 169.007, 236 169.450, 236 170 M 228.792 172.851 C 229.503 173.302, 230.477 174.982, 230.956 176.585 C 231.808 179.433, 231.830 179.441, 231.914 176.950 C 232.002 174.329, 230.407 171.988, 228.550 172.015 C 227.972 172.024, 228.082 172.400, 228.792 172.851 M 391 173.059 C 391 173.641, 391.450 173.840, 392 173.500 C 392.550 173.160, 393 172.684, 393 172.441 C 393 172.198, 392.550 172, 392 172 C 391.450 172, 391 172.477, 391 173.059 M 234.733 175.124 C 235.412 175.808, 236.219 176.115, 236.526 175.807 C 236.834 175.499, 236.279 174.940, 235.293 174.564 C 233.868 174.022, 233.753 174.136, 234.733 175.124 M 119.189 179.158 C 118.124 182.571, 118.125 183.463, 119.196 184.142 C 120.128 184.733, 119.911 184.974, 118.435 184.985 C 117.064 184.995, 115.804 186.187, 114.685 188.534 C 113.758 190.478, 113 192.254, 113 192.482 C 113 192.709, 114.688 192.314, 116.750 191.603 C 119.682 190.593, 120.570 189.719, 120.822 187.595 C 120.999 186.101, 120.607 184.231, 119.950 183.440 C 118.995 182.289, 119.077 182, 120.359 182 C 122.078 182, 123.615 177.804, 122.535 176.057 C 121.357 174.150, 120.506 174.939, 119.189 179.158 M 126.820 176.709 C 124.511 177.063, 123.992 177.809, 123.070 182.109 C 121.334 190.204, 121.598 191.806, 124.750 192.284 C 127.310 192.671, 127.275 192.711, 124.250 192.850 L 121 193 121 198.535 C 121 203.971, 121.040 204.048, 123.250 202.848 C 124.487 202.176, 127.300 201.556, 129.500 201.471 C 140.501 201.045, 140.257 201.100, 139.462 199.250 C 139.049 198.287, 138.680 196.713, 138.641 195.750 C 138.603 194.787, 138.304 194, 137.977 194 C 137.650 194, 136.509 193.318, 135.441 192.485 C 133.597 191.045, 133.638 191.001, 136.250 191.593 C 138.638 192.135, 139.009 191.907, 139.067 189.858 C 139.107 188.462, 139.651 189.416, 140.399 192.194 C 141.689 196.985, 142.543 198.445, 146.846 203.207 L 149.293 205.915 151.781 203.957 C 153.150 202.881, 155.307 202, 156.576 202 C 159.660 202, 160.560 200.313, 157.923 199.476 C 156.765 199.108, 155.210 197.352, 154.466 195.574 C 152.875 191.765, 152.228 191.207, 145 187.407 C 141.975 185.817, 139.082 183.837, 138.571 183.008 C 136.988 180.439, 131.848 175.992, 130.644 176.150 C 130.015 176.232, 128.294 176.484, 126.820 176.709 M 397 178 C 397 178.550, 397.477 179, 398.059 179 C 398.641 179, 398.840 178.550, 398.500 178 C 398.160 177.450, 397.684 177, 397.441 177 C 397.198 177, 397 177.450, 397 178 M 384.971 181.535 C 383.245 183.615, 384.534 184.608, 386.460 182.683 C 387.315 181.827, 387.613 180.879, 387.121 180.575 C 386.629 180.271, 385.662 180.703, 384.971 181.535 M 307.173 185.460 C 305.467 187.335, 303.802 190.136, 303.472 191.684 C 303.018 193.820, 303.449 193.414, 305.262 190 C 306.575 187.525, 308.669 184.989, 309.914 184.364 C 311.158 183.739, 311.749 182.963, 311.226 182.639 C 310.702 182.316, 308.879 183.585, 307.173 185.460 M 141.469 190.687 C 142.091 194.001, 146.803 202.142, 148.821 203.389 C 149.259 203.660, 150.850 202.895, 152.359 201.690 C 155.029 199.557, 155.060 199.418, 153.530 196.355 C 152.666 194.626, 151.313 192.675, 150.525 192.021 C 149.108 190.844, 141.950 187, 141.177 187 C 140.957 187, 141.089 188.659, 141.469 190.687 M 367.414 189.779 C 365.717 191.276, 363.467 193.049, 362.414 193.720 C 360.578 194.890, 360.583 194.911, 362.532 194.220 C 365.019 193.339, 368.038 191.089, 369.872 188.750 C 371.809 186.280, 370.997 186.620, 367.414 189.779 M 377.500 189 C 377.840 189.550, 378.316 190, 378.559 190 C 378.802 190, 379 189.550, 379 189 C 379 188.450, 378.523 188, 377.941 188 C 377.359 188, 377.160 188.450, 377.500 189 M 394.500 189 C 394.160 189.550, 394.359 190, 394.941 190 C 395.523 190, 396 189.550, 396 189 C 396 188.450, 395.802 188, 395.559 188 C 395.316 188, 394.840 188.450, 394.500 189 M 404.490 192.015 C 404.109 192.632, 403.168 192.895, 402.399 192.600 C 401.629 192.304, 401 192.461, 401 192.948 C 401 194.595, 403.491 194.686, 404.832 193.088 C 406.037 191.651, 406.113 191.661, 405.633 193.199 C 405.256 194.404, 405.535 194.732, 406.593 194.326 C 407.413 194.011, 407.925 193.275, 407.730 192.689 C 407.208 191.124, 405.288 190.724, 404.490 192.015 M 114.397 195.285 C 111.499 196.959, 112.474 199.130, 115.833 198.483 C 117.997 198.066, 118.123 198.135, 116.500 198.850 L 114.500 199.730 116.500 200.249 C 118.183 200.686, 118.104 200.789, 116 200.899 C 112.726 201.071, 111.500 202.052, 111.500 204.500 C 111.500 205.600, 111.950 206.824, 112.500 207.219 C 113.157 207.692, 113.111 208.566, 112.366 209.769 C 111.355 211.404, 111.589 211.600, 114.552 211.600 C 116.377 211.600, 117.648 211.240, 117.376 210.800 C 117.104 210.360, 117.355 210, 117.933 210 C 118.586 210, 118.951 206.978, 118.898 202 C 118.808 193.620, 118.382 192.984, 114.397 195.285 M 242.116 195.668 C 241.918 197.659, 243.163 200.017, 244.105 199.435 C 244.597 199.131, 244.993 198.121, 244.985 197.191 C 244.972 195.825, 244.800 195.768, 244.086 196.895 C 243.376 198.016, 243.107 197.918, 242.717 196.395 C 242.450 195.353, 242.180 195.026, 242.116 195.668 M 254.030 197.531 C 250.010 199.335, 247.262 201.641, 245.739 204.489 C 244.988 205.894, 245.743 205.553, 248.246 203.356 C 254.899 197.517, 262.750 196.656, 268.451 201.140 C 269.911 202.289, 271.336 202.997, 271.618 202.715 C 271.901 202.433, 270.544 200.991, 268.603 199.511 C 264.269 196.205, 258.678 195.445, 254.030 197.531 M 236.198 199.500 C 236.200 203.363, 237.423 207.772, 238.137 206.490 C 238.440 205.945, 238.128 203.475, 237.442 201 C 236.392 197.207, 236.197 196.971, 236.198 199.500 M 361 198.500 C 359.625 199.286, 358.976 199.945, 359.559 199.965 C 360.141 199.984, 361.491 199.339, 362.559 198.532 C 365.028 196.664, 364.239 196.648, 361 198.500 M 229.667 198.667 C 228.751 199.582, 228.822 207.774, 229.750 208.337 C 230.162 208.588, 230.536 206.364, 230.581 203.396 C 230.625 200.428, 230.588 198, 230.497 198 C 230.407 198, 230.033 198.300, 229.667 198.667 M 353.813 201.683 C 354.534 201.972, 355.397 201.936, 355.729 201.604 C 356.061 201.272, 355.471 201.036, 354.417 201.079 C 353.252 201.127, 353.015 201.364, 353.813 201.683 M 127.999 203.139 C 127.999 203.490, 126.422 204.074, 124.493 204.435 C 121.300 205.034, 121.039 205.336, 121.586 207.797 C 122.953 213.955, 122.821 213.827, 127.286 213.351 C 132.155 212.832, 138.724 211.208, 141.236 209.903 C 142.191 209.406, 143.606 209, 144.379 209 C 146.244 209, 147.352 205.952, 145.985 204.583 C 144.827 203.422, 127.997 202.071, 127.999 203.139 M 342.750 203.662 C 343.438 203.940, 344.563 203.940, 345.250 203.662 C 345.938 203.385, 345.375 203.158, 344 203.158 C 342.625 203.158, 342.063 203.385, 342.750 203.662 M 154.378 204.923 C 153.210 205.428, 151.208 208.014, 149.928 210.671 C 147.157 216.420, 130.967 233.021, 126.283 234.915 C 124.514 235.630, 122.587 236.793, 122 237.500 C 121.144 238.531, 123.154 238.810, 132.217 238.919 C 138.423 238.993, 145.750 238.557, 148.500 237.951 C 161.399 235.108, 165.965 234.643, 168.367 235.929 C 170.280 236.953, 171.125 236.939, 172.862 235.854 C 174.038 235.120, 175 234, 175 233.366 C 175 232.041, 174.058 231.597, 164.500 228.418 C 155.649 225.474, 158.706 225.283, 168.612 228.161 L 176.050 230.323 178.029 228.199 C 179.890 226.201, 179.904 226.020, 178.254 225.156 C 177.289 224.650, 175.034 223.922, 173.241 223.537 C 168.386 222.495, 170.416 220.790, 175.589 221.566 C 179.351 222.130, 180 221.974, 180 220.507 C 180 219.300, 180.507 218.980, 181.694 219.436 C 183.212 220.018, 183.201 219.879, 181.590 218.099 C 180.600 217.006, 178.826 215.923, 177.646 215.692 C 175.611 215.294, 175.620 215.265, 177.821 215.136 C 179.098 215.061, 180.841 214.302, 181.693 213.449 C 183.094 212.049, 183.063 211.753, 181.372 210.391 C 175.292 205.494, 160.148 202.426, 154.378 204.923 M 338.813 204.683 C 339.534 204.972, 340.397 204.936, 340.729 204.604 C 341.061 204.272, 340.471 204.036, 339.417 204.079 C 338.252 204.127, 338.015 204.364, 338.813 204.683 M 220.694 205.639 C 219.895 206.438, 220.798 208, 222.059 208 C 222.577 208, 223 207.325, 223 206.500 C 223 204.954, 221.820 204.513, 220.694 205.639 M 257 206 C 256.175 206.533, 255.950 206.969, 256.500 206.969 C 257.050 206.969, 258.175 206.533, 259 206 C 259.825 205.467, 260.050 205.031, 259.500 205.031 C 258.950 205.031, 257.825 205.467, 257 206 M 257.208 211.126 C 254.848 212.294, 253.150 213.483, 253.434 213.768 C 253.719 214.052, 254.623 213.728, 255.444 213.046 C 256.265 212.365, 258.863 211.206, 261.218 210.471 C 263.573 209.735, 264.600 209.104, 263.500 209.068 C 262.400 209.031, 259.569 209.958, 257.208 211.126 M 218.223 211.557 C 217 212.413, 216 213.788, 216 214.613 C 216 215.930, 216.272 215.923, 218.223 214.557 C 219.445 213.701, 221.245 213, 222.223 213 C 223.200 213, 224 212.325, 224 211.500 C 224 209.551, 221.044 209.580, 218.223 211.557 M 228.500 212 C 228.840 212.550, 229.316 213, 229.559 213 C 229.802 213, 230 212.550, 230 212 C 230 211.450, 229.523 211, 228.941 211 C 228.359 211, 228.160 211.450, 228.500 212 M 261.809 213.026 C 255.930 214.018, 251.762 216.441, 249.579 220.136 L 247.887 223 250.693 223.100 L 253.500 223.199 251 224 C 248.876 224.680, 248.801 224.826, 250.500 224.971 L 252.500 225.141 250.500 225.960 C 248.651 226.718, 248.718 226.866, 251.390 227.918 C 253.748 228.847, 254.599 228.768, 256.016 227.485 C 257.576 226.074, 257.813 226.071, 258.345 227.457 C 258.732 228.466, 260.228 229, 262.669 229 C 267.080 229, 266.307 227.771, 260.476 225.511 C 257.944 224.530, 257.504 224.165, 259.263 224.507 C 262.818 225.199, 269.695 221.351, 270.477 218.234 C 271.139 215.599, 269.489 211.946, 267.715 212.118 C 267.047 212.182, 264.389 212.591, 261.809 213.026 M 328.548 217.296 C 328.114 220.483, 328.004 223.337, 328.304 223.637 C 329.054 224.387, 330.293 215.678, 329.765 213.367 C 329.530 212.340, 328.983 214.108, 328.548 217.296 M 112.611 214.645 C 110.630 215.718, 110.106 216.448, 110.946 216.967 C 111.620 217.383, 112.072 218.107, 111.951 218.575 C 111.830 219.044, 112.421 219.863, 113.264 220.395 C 115.498 221.804, 119.492 218.872, 119.760 215.627 C 119.936 213.499, 119.553 213.008, 117.739 213.040 C 116.507 213.062, 114.200 213.784, 112.611 214.645 M 136.029 213.961 C 135.220 214.473, 134.818 215.152, 135.136 215.470 C 135.455 215.788, 136.284 215.362, 136.980 214.524 C 138.423 212.786, 138.146 212.622, 136.029 213.961 M 336.613 217.183 C 336.902 217.650, 337.557 217.774, 338.069 217.457 C 339.377 216.649, 339.230 216.333, 337.544 216.333 C 336.743 216.333, 336.324 216.716, 336.613 217.183 M 220.989 220.250 C 219.899 222.037, 219.006 224.283, 219.004 225.240 C 219 226.894, 219.106 226.894, 221.134 225.240 C 228.286 219.408, 228.557 219.074, 227 218.033 C 224.470 216.342, 223.053 216.864, 220.989 220.250 M 308.813 218.683 C 309.534 218.972, 310.397 218.936, 310.729 218.604 C 311.061 218.272, 310.471 218.036, 309.417 218.079 C 308.252 218.127, 308.015 218.364, 308.813 218.683 M 331.500 219 C 331.840 219.550, 332.879 220.032, 333.809 220.070 C 335.205 220.128, 335.151 220.305, 333.500 221.086 C 331.825 221.877, 331.939 221.946, 334.197 221.510 C 336.106 221.141, 337.180 221.499, 337.872 222.736 C 338.410 223.697, 339.115 224.218, 339.439 223.894 C 340.650 222.683, 335.827 218, 333.368 218 C 331.965 218, 331.151 218.436, 331.500 219 M 274.079 223.583 C 274.127 224.748, 274.364 224.985, 274.683 224.188 C 274.972 223.466, 274.936 222.603, 274.604 222.271 C 274.272 221.939, 274.036 222.529, 274.079 223.583 M 310.319 225.931 C 311.503 228.092, 312.684 229.650, 312.942 229.391 C 313.570 228.764, 309.894 222, 308.926 222 C 308.508 222, 309.135 223.769, 310.319 225.931 M 312.569 224 C 312.939 225.375, 313.624 227.175, 314.091 228 C 314.768 229.198, 314.945 229.085, 314.970 227.441 C 314.986 226.309, 314.302 224.509, 313.448 223.441 C 311.957 221.576, 311.923 221.598, 312.569 224 M 266 224.583 C 266 225.454, 266.534 225.989, 267.188 225.771 C 269.042 225.153, 269.349 223, 267.583 223 C 266.712 223, 266 223.713, 266 224.583 M 153.750 225.662 C 154.438 225.940, 155.563 225.940, 156.250 225.662 C 156.938 225.385, 156.375 225.158, 155 225.158 C 153.625 225.158, 153.063 225.385, 153.750 225.662 M 295.863 225.917 C 289.453 226.815, 287.997 228.291, 288.015 233.872 C 288.026 237.229, 288.297 238.088, 289 237 C 289.862 235.667, 289.978 235.667, 290.048 237 C 290.094 237.883, 290.494 237.587, 291.020 236.280 C 292.192 233.368, 296.354 232.347, 299.270 234.257 C 301.997 236.044, 303.419 234.924, 304.463 230.166 C 304.846 228.425, 305.686 226.968, 306.329 226.930 C 308.037 226.827, 303.776 225.129, 302 225.204 C 301.175 225.239, 298.414 225.560, 295.863 225.917 M 322.250 232.750 C 317.164 239.398, 316.145 241.989, 319.982 238.516 C 322.424 236.306, 328.425 227.092, 327.818 226.485 C 327.577 226.244, 325.071 229.063, 322.250 232.750 M 223.684 229.101 C 223.381 230.257, 222.655 230.905, 222.067 230.542 C 221.480 230.179, 221 230.569, 221 231.410 C 221 232.357, 221.570 232.718, 222.500 232.362 C 223.325 232.045, 224 231.416, 224 230.964 C 224 230.513, 224.707 229.436, 225.571 228.571 C 226.893 227.250, 226.912 227, 225.688 227 C 224.888 227, 223.986 227.945, 223.684 229.101 M 226.646 229.452 C 225.077 230.906, 224 232.975, 224 234.534 L 224 237.163 227.750 234.906 C 238.100 228.676, 239.244 227, 233.146 227 C 230.441 227, 228.503 227.731, 226.646 229.452 M 345.720 232.398 L 349.790 237.296 347.899 240.398 C 346.859 242.104, 346.006 244.107, 346.004 244.849 C 346.002 245.591, 344.388 248.810, 342.418 252.002 C 339.040 257.474, 330.132 266.732, 316.500 278.937 C 310.201 284.576, 313.065 282.941, 324 274.654 C 331.445 269.013, 339 261.992, 339 260.715 C 339 260.237, 340.255 258.591, 341.789 257.057 C 344.816 254.030, 350.380 244.061, 351.345 239.935 C 351.847 237.790, 351.103 236.563, 346.798 232.435 L 341.650 227.500 345.720 232.398 M 255.217 230.250 C 253.450 232.401, 253.301 237, 255 237 C 255.550 237, 256 236.100, 256 235 C 256 232.709, 257.523 232.315, 258.323 234.399 C 258.618 235.169, 260.445 236.322, 262.382 236.961 C 264.319 237.600, 266.157 238.921, 266.467 239.895 C 267.236 242.320, 269.869 242.215, 269.233 239.785 C 268.963 238.749, 266.499 236.766, 263.758 235.377 C 261.017 233.988, 258.547 231.985, 258.270 230.926 C 257.688 228.699, 256.676 228.475, 255.217 230.250 M 274.986 230.414 C 273.192 232.208, 273.961 232.965, 276.569 231.974 C 277.983 231.436, 280.345 231.271, 281.819 231.606 C 284.449 232.204, 284.460 232.186, 282.403 230.659 C 280.123 228.965, 276.553 228.847, 274.986 230.414 M 269 232.622 C 269 233.951, 269.271 234.020, 270.500 233 C 271.325 232.315, 272 231.585, 272 231.378 C 272 231.170, 271.325 231, 270.500 231 C 269.675 231, 269 231.730, 269 232.622 M 212.200 234.200 C 210.581 235.819, 210.622 240.305, 212.250 239.708 C 212.938 239.456, 213.381 238.726, 213.236 238.084 C 213.092 237.443, 213.445 236.037, 214.022 234.959 C 215.183 232.790, 214.073 232.327, 212.200 234.200 M 232.500 234 C 232.160 234.550, 232.359 235, 232.941 235 C 233.523 235, 234 234.550, 234 234 C 234 233.450, 233.802 233, 233.559 233 C 233.316 233, 232.840 233.450, 232.500 234 M 236.229 235.669 C 234.692 236.288, 232.530 240.408, 231.596 244.500 L 230.911 247.500 233.361 244.500 C 234.708 242.850, 236.237 241.500, 236.759 241.500 C 237.281 241.500, 238.939 240.037, 240.443 238.250 L 243.178 235 240.339 235.079 C 238.778 235.122, 236.928 235.388, 236.229 235.669 M 270.286 235.653 C 269.482 235.977, 269.373 236.710, 269.963 237.821 C 270.453 238.745, 271.073 240.223, 271.341 241.106 C 272.048 243.442, 279.586 245.204, 281.094 243.386 C 281.727 242.624, 282.838 242, 283.563 242 C 284.289 242, 285.149 241.567, 285.476 241.038 C 286.746 238.984, 273.589 234.319, 270.286 235.653 M 296.750 235.662 C 297.438 235.940, 298 236.894, 298 237.783 C 298 238.970, 298.296 239.104, 299.113 238.287 C 300.531 236.869, 299.396 234.976, 297.191 235.079 C 296.150 235.128, 295.980 235.352, 296.750 235.662 M 227.667 237.667 C 227.300 238.033, 227.029 239.271, 227.063 240.417 C 227.122 242.332, 227.204 242.307, 228.085 240.105 C 229.064 237.657, 228.861 236.472, 227.667 237.667 M 153.961 239.762 C 149.881 241.840, 138.796 242.507, 131.500 241.116 C 125.777 240.024, 120.977 240.808, 112.948 244.148 L 107.396 246.457 111.054 249.978 C 113.066 251.915, 114.930 254.175, 115.195 255 C 115.617 256.314, 116.116 256.292, 119.214 254.826 C 121.788 253.607, 123.051 253.451, 123.852 254.252 C 124.652 255.052, 124.652 255.714, 123.854 256.676 C 123.250 257.404, 123.148 257.987, 123.628 257.971 C 124.844 257.930, 131 252.224, 131 251.138 C 131 249.767, 142.366 249.068, 143.235 250.386 C 143.681 251.062, 144.006 250.714, 144.064 249.500 C 144.115 248.400, 144.386 248.065, 144.664 248.756 C 144.943 249.447, 145.582 249.758, 146.085 249.447 C 146.588 249.136, 147 250.034, 147 251.441 C 147 252.848, 147.450 254, 148 254 C 148.550 254, 149 253.070, 149 251.934 C 149 248.686, 150.575 246.509, 156.113 242.099 C 161.656 237.685, 160.503 236.432, 153.961 239.762 M 309.033 240.595 C 308.226 242.193, 307.478 243.648, 307.370 243.830 C 307.262 244.011, 306.122 243.499, 304.837 242.692 C 302.081 240.962, 292.151 238.516, 291.307 239.359 C 290.511 240.156, 295.536 241.987, 299.373 242.298 C 301.347 242.458, 302.500 243.095, 302.500 244.026 C 302.500 244.837, 303.416 245.631, 304.537 245.792 C 307.040 246.150, 311.311 241.843, 310.841 239.434 C 310.576 238.081, 310.171 238.341, 309.033 240.595 M 162.145 240.070 C 157.967 241.744, 154.010 245.079, 152.348 248.329 L 150.726 251.500 153.020 249.500 L 155.314 247.500 154.593 250 C 154.196 251.375, 153.668 255.650, 153.418 259.500 C 152.892 267.641, 154.093 265.969, 156.644 255.009 C 158.442 247.288, 159.353 246, 163.015 246 C 165.829 246, 167 244.506, 167 240.918 C 167 238.829, 165.777 238.615, 162.145 240.070 M 212.455 241.455 C 209.749 244.160, 209.298 247.658, 211.303 250.399 C 212.528 252.075, 212.689 252.079, 214.020 250.476 C 214.799 249.538, 215.506 247.360, 215.592 245.635 C 215.679 243.911, 216.079 241.713, 216.482 240.750 C 217.557 238.180, 215.341 238.568, 212.455 241.455 M 342 242 C 342 242.550, 342.477 243, 343.059 243 C 343.641 243, 343.840 242.550, 343.500 242 C 343.160 241.450, 342.684 241, 342.441 241 C 342.198 241, 342 241.450, 342 242 M 425 249.339 C 425 257.306, 424.886 257.731, 422.453 258.839 C 419.367 260.245, 415.741 260.341, 414.450 259.050 C 413.139 257.739, 404.962 259.670, 403.530 261.629 C 400.833 265.316, 388.982 264.931, 385.842 261.053 C 384.587 259.503, 381.969 258.540, 376.306 257.545 C 368.916 256.246, 368.388 256.277, 366.401 258.119 C 361.757 262.424, 345.737 262.733, 347.367 258.486 C 348.619 255.224, 345.415 257.405, 336.846 265.648 L 327.857 274.295 333.179 273.668 C 336.105 273.322, 341.350 271.594, 344.834 269.828 C 353.263 265.553, 354.399 266.245, 354.795 275.892 L 355.089 283.074 358.295 282.536 C 364.230 281.541, 384.428 281.312, 393.514 282.137 C 398.471 282.587, 406.796 284.039, 412.014 285.363 C 417.231 286.688, 421.699 287.586, 421.942 287.360 C 423.898 285.542, 427.464 241, 425.654 241 C 425.294 241, 425 244.753, 425 249.339 M 283.223 243.557 C 282 244.413, 281 245.571, 281 246.129 C 281 246.688, 282.186 246.212, 283.635 245.073 C 286.815 242.571, 287.918 242.517, 292.375 244.642 C 294.427 245.620, 296.562 245.983, 297.659 245.539 C 299.076 244.965, 298.348 244.482, 294.500 243.441 C 287.928 241.663, 285.896 241.684, 283.223 243.557 M 298.167 247.140 C 296.884 248.722, 295.352 249.718, 294.763 249.353 C 294.128 248.961, 293.982 249.162, 294.405 249.845 C 294.839 250.548, 294.442 251, 293.392 251 C 292.443 251, 291.967 251.301, 292.335 251.668 C 293.351 252.684, 297.786 249.976, 299.573 247.248 C 301.831 243.801, 300.931 243.732, 298.167 247.140 M 242.778 245.684 C 241.127 246.117, 239.017 251.500, 239.006 255.309 C 238.998 257.727, 240.504 256.668, 244.066 251.750 C 248.311 245.891, 247.977 244.319, 242.778 245.684 M 252.150 248 C 252.725 249.650, 253.613 251, 254.124 251 C 254.634 251, 254.353 249.650, 253.500 248 C 252.647 246.350, 251.759 245, 251.526 245 C 251.294 245, 251.575 246.350, 252.150 248 M 331.436 248.448 C 329.114 250.396, 325.899 252.045, 323.936 252.296 C 322.046 252.538, 322.703 252.630, 325.397 252.500 C 329.529 252.302, 330.738 251.756, 333.147 248.997 C 335.747 246.018, 336.436 244.966, 335.750 245.020 C 335.613 245.030, 333.671 246.573, 331.436 248.448 M 97.513 248.507 C 95.321 249.288, 92.942 250.726, 92.229 251.702 C 91.068 253.290, 91.350 253.617, 94.904 254.801 C 98.400 255.967, 99.191 255.921, 101.480 254.421 C 102.911 253.484, 104.523 251.891, 105.064 250.881 C 105.880 249.356, 105.746 249.158, 104.273 249.710 C 102.718 250.293, 102.669 250.167, 103.872 248.687 C 105.070 247.216, 105.006 247.006, 103.372 247.044 C 102.343 247.068, 99.706 247.727, 97.513 248.507 M 175.667 248.667 C 175.300 249.033, 175 250.638, 175 252.232 C 175 253.827, 174.497 256.114, 173.883 257.316 C 172.892 259.255, 172.934 259.332, 174.260 258 C 175.082 257.175, 176.040 254.588, 176.389 252.250 C 177.025 247.992, 176.910 247.423, 175.667 248.667 M 215.241 250.250 C 212.188 253.509, 210.785 257.729, 211.999 259.998 C 214.444 264.566, 220.710 262.965, 219.485 258.084 C 219.131 256.674, 218.321 255.198, 217.684 254.805 C 216.811 254.265, 216.809 253.345, 217.677 251.045 C 219.039 247.435, 218.150 247.145, 215.241 250.250 M 202 250.441 C 202 251.298, 202.450 252, 203 252 C 203.550 252, 204 251.577, 204 251.059 C 204 250.541, 203.550 249.840, 203 249.500 C 202.450 249.160, 202 249.584, 202 250.441 M 177.624 251.800 C 176.653 253.371, 178.140 259.116, 179.669 259.703 C 180.430 259.995, 182.163 262.129, 183.521 264.445 C 184.878 266.761, 187.747 270.070, 189.897 271.797 C 193.108 274.377, 194.008 274.695, 194.937 273.576 C 195.826 272.504, 195.168 271.444, 191.854 268.607 C 189.536 266.623, 187.271 265, 186.820 265 C 186.369 265, 186 264.568, 186 264.040 C 186 262.174, 178.230 250.819, 177.624 251.800 M 135 253 C 135.825 253.533, 137.400 253.945, 138.500 253.914 L 140.500 253.859 138.500 253 C 137.400 252.527, 135.825 252.116, 135 252.086 C 133.667 252.037, 133.667 252.138, 135 253 M 220.667 252.667 C 219.689 253.644, 219.854 257.791, 220.895 258.435 C 221.919 259.068, 223 256.747, 223 253.918 C 223 251.997, 221.917 251.416, 220.667 252.667 M 200 255.083 C 200 257.520, 202.337 257.176, 202.823 254.667 C 203.015 253.680, 202.505 253, 201.573 253 C 200.646 253, 200 253.855, 200 255.083 M 186.684 257.100 C 186.328 258.460, 186.579 259.744, 187.288 260.188 C 188.831 261.155, 189.451 258.629, 188.214 256.417 C 187.418 254.995, 187.210 255.088, 186.684 257.100 M 90.078 259.656 C 89.491 261.770, 89.061 265.975, 89.122 269 C 89.182 272.025, 89.364 273.825, 89.525 273 C 91.230 264.264, 92.213 256.879, 91.734 256.401 C 91.411 256.077, 90.665 257.542, 90.078 259.656 M 216.158 258 C 216.158 259.375, 216.385 259.938, 216.662 259.250 C 216.940 258.563, 216.940 257.438, 216.662 256.750 C 216.385 256.063, 216.158 256.625, 216.158 258 M 201.051 257.968 C 199.037 259.213, 199.097 264.043, 201.141 265.320 C 202.381 266.095, 202.606 266.868, 201.948 268.097 C 201.300 269.309, 201.467 269.965, 202.528 270.372 C 203.348 270.687, 203.961 271.294, 203.891 271.722 C 203.558 273.753, 204.145 274.128, 205.692 272.872 C 206.842 271.940, 207.143 271.901, 206.633 272.750 C 206.220 273.438, 206.359 274, 206.941 274 C 208.468 274, 208.243 271.926, 206.508 270.009 C 205.688 269.103, 204.560 265.952, 204.001 263.007 C 202.820 256.776, 202.863 256.849, 201.051 257.968 M 244.345 258.543 C 244.019 259.392, 244.034 260.367, 244.376 260.710 C 244.719 261.053, 245 260.615, 245 259.736 C 245 258.858, 246.012 257.944, 247.250 257.706 L 249.500 257.272 247.219 257.136 C 245.964 257.061, 244.671 257.694, 244.345 258.543 M 251.018 258.966 C 249.871 261.110, 250.723 269, 252.102 269 C 253.896 269, 256.470 262.104, 256.115 258.250 C 255.933 256.270, 252.179 256.798, 251.018 258.966 M 220.751 261.530 C 217.134 264.884, 216.341 268.345, 218.452 271.568 C 219.685 273.449, 220.832 274.039, 222.813 273.810 C 225.392 273.512, 225.487 273.291, 225.184 268.307 C 225.010 265.452, 225.364 262.189, 225.969 261.057 C 227.602 258.006, 224.222 258.312, 220.751 261.530 M 270.550 259.878 C 271.072 260.361, 273.648 260.982, 276.273 261.258 C 280.251 261.676, 280.855 261.530, 279.900 260.380 C 279.232 259.574, 276.849 259, 274.178 259 C 271.495 259, 269.993 259.363, 270.550 259.878 M 285.813 259.683 C 286.534 259.972, 287.397 259.936, 287.729 259.604 C 288.061 259.272, 287.471 259.036, 286.417 259.079 C 285.252 259.127, 285.015 259.364, 285.813 259.683 M 165.924 263.750 L 163.500 266.500 166.250 264.076 C 168.820 261.810, 169.459 261, 168.674 261 C 168.495 261, 167.258 262.238, 165.924 263.750 M 313.333 264.343 C 313.333 265.250, 314.158 266.738, 315.167 267.651 C 316.175 268.563, 317 268.840, 317 268.266 C 317 267.691, 316.175 266.203, 315.167 264.957 C 313.712 263.161, 313.333 263.034, 313.333 264.343 M 321.813 263.683 C 322.534 263.972, 323.397 263.936, 323.729 263.604 C 324.061 263.272, 323.471 263.036, 322.417 263.079 C 321.252 263.127, 321.015 263.364, 321.813 263.683 M 178.471 264.953 C 178.795 265.478, 180.509 266.905, 182.280 268.124 L 185.500 270.341 182.563 267.170 C 179.847 264.238, 177.114 262.758, 178.471 264.953 M 228.183 266.217 C 226.504 267.896, 226.692 270.332, 228.449 269.658 C 229.355 269.310, 229.714 269.583, 229.406 270.384 C 229.135 271.090, 229.559 271.667, 230.347 271.667 C 231.505 271.667, 231.581 271.076, 230.741 268.583 C 229.429 264.687, 229.577 264.823, 228.183 266.217 M 108 268.333 C 108 269.067, 109.541 271.429, 111.425 273.583 C 115.098 277.783, 115.473 276.783, 112.486 270.750 C 110.678 267.098, 108 265.655, 108 268.333 M 261.174 267.871 C 260.445 268.334, 259.598 270.577, 259.293 272.856 C 258.752 276.887, 258.815 277, 261.618 276.985 C 263.203 276.976, 265.175 276.513, 266 275.954 C 267.095 275.213, 266.691 275.120, 264.500 275.611 L 261.500 276.282 264 273.480 C 265.375 271.939, 265.825 271.061, 265 271.531 C 263.720 272.259, 263.696 272.142, 264.836 270.736 C 267.090 267.955, 264.383 265.837, 261.174 267.871 M 223 269.941 C 223 271.009, 223.385 272.120, 223.856 272.411 C 224.326 272.702, 224.499 271.828, 224.239 270.470 C 223.675 267.519, 223 267.231, 223 269.941 M 346.286 270.637 C 341.492 273.107, 341.202 273.471, 341.682 276.428 C 342.178 279.482, 340.462 283.261, 334.335 292.612 C 332.961 294.709, 332.888 295.204, 334.010 294.830 C 335.184 294.439, 339.501 287.617, 342.605 281.250 C 343.323 279.777, 345 279.576, 345 280.962 C 345 284.960, 339.978 293.891, 332.976 302.345 C 325.753 311.067, 324.363 313.373, 327.619 311.235 C 329.623 309.918, 339.132 297.596, 341.111 293.750 C 342.172 291.688, 343.460 290, 343.973 290 C 344.486 290, 345.613 291.489, 346.476 293.309 C 347.890 296.288, 347.895 297.047, 346.523 300.934 C 345.685 303.309, 345 305.910, 345 306.715 C 345 308.404, 349.120 312.044, 350.245 311.349 C 350.660 311.092, 351.003 307.646, 351.008 303.691 C 351.012 299.736, 351.464 293.736, 352.012 290.358 C 353.410 281.744, 353.629 270.229, 352.419 269.019 C 351.729 268.329, 349.755 268.849, 346.286 270.637 M 233.923 273.923 C 230.564 277.282, 230.214 279.979, 232.829 282.345 C 235.096 284.397, 236 284.441, 236 282.500 C 236 281.675, 236.702 281, 237.559 281 C 238.463 281, 238.825 281.475, 238.420 282.130 C 237.994 282.819, 238.263 283.069, 239.111 282.771 C 240.624 282.239, 240.590 275.728, 239.072 275.202 C 238.599 275.038, 238.442 274.026, 238.723 272.952 C 239.468 270.104, 237.305 270.541, 233.923 273.923 M 297.079 272.583 C 297.127 273.748, 297.364 273.985, 297.683 273.188 C 297.972 272.466, 297.936 271.603, 297.604 271.271 C 297.272 270.939, 297.036 271.529, 297.079 272.583 M 299.624 273.539 C 298.659 276.053, 298.943 276.702, 300.122 274.675 C 300.706 273.671, 300.973 272.639, 300.715 272.382 C 300.458 272.124, 299.966 272.645, 299.624 273.539 M 279.509 275 C 278.766 277.309, 278.651 277.350, 278.014 275.536 C 277.401 273.791, 277.247 273.878, 276.633 276.324 C 276.254 277.837, 276.378 279.846, 276.910 280.788 C 277.731 282.241, 278.122 281.918, 279.491 278.657 C 280.378 276.543, 280.927 274.293, 280.709 273.657 C 280.491 273.021, 279.951 273.625, 279.509 275 M 93.624 275.539 C 92.659 278.053, 92.943 278.702, 94.122 276.675 C 94.706 275.671, 94.973 274.639, 94.715 274.382 C 94.458 274.124, 93.966 274.645, 93.624 275.539 M 195.844 274.805 C 195.758 275.187, 195.630 276.737, 195.560 278.249 C 195.450 280.604, 195.723 280.894, 197.466 280.272 C 198.585 279.873, 200.963 279.536, 202.750 279.523 C 204.537 279.510, 206 279.222, 206 278.883 C 206 277.985, 196.029 273.982, 195.844 274.805 M 284.479 277.024 C 283.264 278.365, 282.417 278.674, 281.963 277.940 C 281.515 277.216, 281.056 277.412, 280.636 278.506 C 278.909 283.006, 283.580 281.521, 286.128 276.761 C 287.375 274.430, 286.733 274.532, 284.479 277.024 M 244 277 C 243.099 277.582, 242.975 277.975, 243.691 277.985 C 244.346 277.993, 245.160 277.550, 245.500 277 C 246.267 275.758, 245.921 275.758, 244 277 M 215 280.059 C 215 280.641, 215.450 280.840, 216 280.500 C 216.550 280.160, 217 279.684, 217 279.441 C 217 279.198, 216.550 279, 216 279 C 215.450 279, 215 279.477, 215 280.059 M 256.500 282.090 C 253.750 283.092, 250.488 283.932, 249.250 283.956 C 247.681 283.987, 247 284.606, 247 286 C 247 287.100, 247.477 288, 248.059 288 C 248.641 288, 248.869 288.403, 248.565 288.895 C 247.648 290.379, 251.133 291.125, 252.877 289.817 C 256.316 287.238, 260.212 283.426, 261.121 281.750 C 261.643 280.788, 261.942 280.060, 261.785 280.134 C 261.628 280.207, 259.250 281.088, 256.500 282.090 M 219 281.692 C 219 282.241, 219.900 283.505, 221 284.500 C 222.100 285.495, 223 286.084, 223 285.808 C 223 285.532, 222.100 284.268, 221 283 C 219.900 281.732, 219 281.143, 219 281.692 M 177.431 283.112 C 177.053 283.723, 177.364 284.616, 178.122 285.096 C 179.204 285.782, 179.218 285.973, 178.191 285.985 C 177.471 285.993, 177.160 286.450, 177.500 287 C 177.840 287.550, 177.976 288, 177.802 288 C 177.629 288, 176.019 288.421, 174.224 288.936 C 172.198 289.517, 171.181 289.517, 171.540 288.936 C 171.879 288.386, 168.998 288, 164.559 288 C 156.996 288, 154.126 289.517, 160.250 290.277 C 162.942 290.611, 162.727 290.713, 159 290.870 C 155.196 291.031, 154.793 291.231, 156.398 292.163 C 158.857 293.591, 169.977 292.635, 176.262 290.455 C 181.669 288.580, 184.590 285.416, 182.849 283.318 C 181.515 281.711, 178.371 281.591, 177.431 283.112 M 261 285.813 C 261 286.443, 259.087 287.957, 256.750 289.176 C 253.610 290.814, 252.972 291.494, 254.308 291.781 C 255.303 291.994, 256.739 291.930, 257.500 291.638 C 259.307 290.945, 262.455 286.122, 261.635 285.302 C 261.286 284.953, 261 285.183, 261 285.813 M 293 287.500 C 292.293 288.352, 291.940 289.273, 292.215 289.548 C 292.490 289.823, 293.293 289.352, 294 288.500 C 294.707 287.648, 295.060 286.727, 294.785 286.452 C 294.510 286.177, 293.707 286.648, 293 287.500 M 134.015 291.954 C 130.693 294.507, 131.979 295.483, 136.683 293.979 C 141.820 292.336, 143.567 290.564, 139.125 291.502 C 136.762 292, 135.955 291.882, 136.434 291.107 C 137.383 289.572, 136.892 289.743, 134.015 291.954 M 265.500 290.735 C 263.300 290.954, 261.050 291.600, 260.500 292.170 C 259.242 293.473, 268.048 292.221, 269.450 290.897 C 269.972 290.404, 270.197 290.076, 269.950 290.168 C 269.702 290.261, 267.700 290.516, 265.500 290.735 M 275 291.559 C 275 292.416, 274.581 292.859, 274.069 292.543 C 273.557 292.226, 272.837 292.455, 272.468 293.052 C 272.099 293.648, 271.069 293.857, 270.179 293.515 C 269.289 293.174, 268.886 293.219, 269.283 293.616 C 269.680 294.013, 269.216 295.239, 268.252 296.341 C 266.137 298.759, 268.173 297.816, 272 294.605 C 273.981 292.942, 273.891 293.181, 271.563 295.754 C 268.161 299.514, 269.887 300.204, 273.545 296.545 C 275.661 294.430, 276.983 290, 275.500 290 C 275.225 290, 275 290.702, 275 291.559 M 288 291.894 C 288 292.386, 286.694 294.186, 285.099 295.894 C 281.681 299.553, 282.962 300.129, 286.545 296.545 C 288.703 294.388, 289.897 291, 288.500 291 C 288.225 291, 288 291.402, 288 291.894 M 194.453 299.121 C 192.279 301.387, 188.745 304.537, 186.600 306.121 C 182.476 309.165, 182.821 310.157, 187.027 307.351 C 190.487 305.043, 196.971 298.844, 198.114 296.750 C 199.562 294.101, 198.788 294.602, 194.453 299.121 M 129.405 298.250 L 127.500 300.500 129.750 298.595 C 130.988 297.547, 132 296.535, 132 296.345 C 132 295.545, 131.195 296.136, 129.405 298.250 M 218.583 310.908 C 219.179 311.545, 221.879 312.931, 224.583 313.987 L 229.500 315.906 226 315.997 L 222.500 316.088 226.500 317.529 C 231.356 319.278, 240.467 319.415, 246.753 317.832 C 250.477 316.894, 251.008 316.513, 249.446 315.902 C 248.376 315.483, 245.025 315.083, 242 315.013 C 238.975 314.942, 233.350 313.995, 229.500 312.907 C 218.467 309.789, 217.345 309.584, 218.583 310.908 M 238.965 313.094 C 241.772 313.644, 243.797 313.603, 244.415 312.985 C 245.062 312.338, 243.527 312.038, 239.950 312.110 L 234.500 312.219 238.965 313.094 M 332.500 315.531 C 329.200 316.286, 325.150 317.297, 323.500 317.777 L 320.500 318.651 324.240 319.261 C 326.297 319.597, 329.133 319.662, 330.541 319.407 C 332.823 318.993, 332.987 319.156, 332.051 320.906 C 329.874 324.972, 331.148 324.800, 335.509 320.438 C 337.990 317.958, 341.027 315.523, 342.259 315.028 C 344.326 314.197, 344.267 314.128, 341.500 314.143 C 339.850 314.152, 335.800 314.777, 332.500 315.531 M 343.250 317.105 C 338.285 319.999, 335.708 322.297, 340.009 319.995 C 341.114 319.404, 343.708 319.020, 345.774 319.142 L 349.530 319.363 347.291 325.932 C 346.059 329.544, 345.056 333.400, 345.061 334.500 C 345.070 336.271, 345.235 336.214, 346.509 334 C 348.761 330.084, 352.179 320.829, 352.695 317.250 C 353.109 314.374, 352.895 314.003, 350.832 314.022 C 349.549 314.034, 346.137 315.421, 343.250 317.105 M 144.500 317.727 L 139.500 319.314 143 320.123 C 144.925 320.568, 147.123 320.713, 147.884 320.446 C 148.970 320.064, 149.151 320.839, 148.722 324.036 C 148.262 327.465, 148.439 328.063, 149.838 327.798 C 151.037 327.570, 151.583 326.232, 151.797 322.991 C 151.976 320.283, 152.746 318.004, 153.738 317.250 C 155.168 316.163, 154.999 316.009, 152.441 316.070 C 150.824 316.108, 147.250 316.854, 144.500 317.727 M 167.055 320.473 C 165.161 321.843, 161.675 323.759, 159.309 324.732 C 154.492 326.712, 153.472 328.299, 157.817 327.053 C 159.366 326.608, 163.754 326.208, 167.567 326.164 C 171.665 326.116, 176.749 325.291, 180 324.147 L 185.500 322.211 181.500 320.482 C 174.927 317.641, 170.977 317.638, 167.055 320.473 M 211.618 320.554 C 211.193 321.661, 210.451 321.756, 208.286 320.983 C 205.676 320.051, 205.623 320.084, 207.451 321.501 C 208.524 322.334, 210.549 322.823, 211.951 322.590 C 213.353 322.356, 216.727 322.127, 219.450 322.082 C 225.881 321.975, 224.309 320.150, 217.277 319.559 C 213.477 319.240, 212.024 319.495, 211.618 320.554 M 191.813 320.683 C 192.534 320.972, 193.397 320.936, 193.729 320.604 C 194.061 320.272, 193.471 320.036, 192.417 320.079 C 191.252 320.127, 191.015 320.364, 191.813 320.683 M 199.750 321.662 C 200.438 321.940, 201.563 321.940, 202.250 321.662 C 202.938 321.385, 202.375 321.158, 201 321.158 C 199.625 321.158, 199.063 321.385, 199.750 321.662 M 207.676 326.452 C 203.505 327.939, 201.945 329, 203.929 329 C 205.696 329, 216 325.952, 216 325.429 C 216 324.561, 211.391 325.127, 207.676 326.452 M 366.240 328 C 362.254 330.424, 361.348 332, 363.941 332 C 366.432 332, 366.430 331.089, 363.959 342.183 C 361.944 351.230, 362.003 356.514, 364.079 352.818 C 365.647 350.024, 369.195 337.797, 369.680 333.515 C 369.930 331.307, 370.554 329.350, 371.067 329.167 C 372.444 328.675, 372.200 327.291, 370.631 326.688 C 369.877 326.399, 367.901 326.990, 366.240 328 M 199.813 329.683 C 200.534 329.972, 201.397 329.936, 201.729 329.604 C 202.061 329.272, 201.471 329.036, 200.417 329.079 C 199.252 329.127, 199.015 329.364, 199.813 329.683 M 195.813 330.683 C 196.534 330.972, 197.397 330.936, 197.729 330.604 C 198.061 330.272, 197.471 330.036, 196.417 330.079 C 195.252 330.127, 195.015 330.364, 195.813 330.683 M 283 334.151 C 277.455 337.957, 277.542 337.876, 278.235 338.569 C 278.767 339.100, 289 332.292, 289 331.406 C 289 330.443, 287.210 331.262, 283 334.151 M 373.070 338.721 C 372.379 341.593, 372.008 344.518, 372.244 345.221 C 372.480 345.925, 373.239 344.150, 373.930 341.279 C 374.621 338.407, 374.992 335.482, 374.756 334.779 C 374.520 334.075, 373.761 335.850, 373.070 338.721 M 329 338.947 C 329 340.340, 334.965 343.991, 337.250 343.996 C 338.212 343.998, 339 343.550, 339 343 C 339 342.450, 338.057 342, 336.904 342 C 335.752 342, 333.502 341.069, 331.904 339.932 C 330.307 338.794, 329 338.351, 329 338.947 M 347.082 346.401 C 345.806 347.939, 346.657 349, 349.167 349 C 351.328 349, 351.637 346.459, 349.573 345.666 C 348.788 345.365, 347.667 345.696, 347.082 346.401 M 320.080 349.391 C 323.379 351.302, 332.532 352.567, 333.361 351.226 C 333.728 350.631, 331.656 349.949, 328.239 349.540 C 325.082 349.161, 321.375 348.637, 320 348.374 L 317.500 347.896 320.080 349.391 M 169.986 372.233 C 168.671 374.011, 164.072 379.656, 159.766 384.778 C 155.460 389.899, 152.203 394.519, 152.528 395.045 C 153.684 396.915, 156.981 395.957, 158.704 393.250 C 159.666 391.738, 160.693 390.275, 160.986 390 C 161.279 389.725, 162.797 387.529, 164.359 385.121 C 166.619 381.636, 166.924 380.567, 165.850 379.886 C 164.869 379.265, 165.116 379.026, 166.750 379.015 C 168.077 379.006, 169 378.384, 169 377.500 C 169 376.675, 169.378 376, 169.839 376 C 170.550 376, 171.440 374.597, 173.801 369.750 C 174.839 367.620, 172.058 369.430, 169.986 372.233" stroke="none" fill="black" fill-rule="evenodd"/>
</svg>